<svg t="1746197829510" class="icon" viewBox="0 0 1024 1024" version="1.1" xmlns="http://www.w3.org/2000/svg" p-id="2669" width="256" height="256">
  <!-- Define the gradient -->
  <defs>
    <linearGradient id="logoGradient" x1="0%" y1="0%" x2="0%" y2="100%">
      <!-- Start Color: A nice green -->
      <stop offset="0%" style="stop-color:#10B981; stop-opacity:1" />
      <!-- End Color: A nice blue -->
      <stop offset="100%" style="stop-color:#3B82F6; stop-opacity:1" />
    </linearGradient>
  </defs>

  <!-- Background path (opacity 0.01 - kept as is) -->
  <path d="M1024 0H0v1024h1024V0z" fill="#1296db" fill-opacity=".01" p-id="2670"></path>

  <!-- Main border path - Apply gradient -->
  <path d="M88.277333 852.394667V171.605333H935.68v680.789334H88.32z m85.333334-85.333334H850.346667V256.938667H173.653333v510.122666z" fill="url(#logoGradient)" p-id="2671"></path>

  <!-- Small dots path - Apply gradient -->
  <path d="M345.344 269.909333h-33.28a33.322667 33.322667 0 0 0 0 66.645334h33.28a33.322667 33.322667 0 1 0 0-66.645334zM345.344 387.456h-33.28a33.322667 33.322667 0 1 0 0 66.688h33.28a33.322667 33.322667 0 0 0 0-66.688zM345.344 706.090667h-33.28a33.322667 33.322667 0 1 0 0 66.645333h33.28a33.322667 33.322667 0 1 0 0-66.645333zM345.344 626.986667h-33.28a33.322667 33.322667 0 1 0 0 66.688h33.28a33.322667 33.322667 0 1 0 0-66.688zM345.344 550.229333h-33.28a33.322667 33.322667 0 0 0 0 66.645334h33.28a33.322667 33.322667 0 1 0 0-66.645334zM528.64 528.64h-33.28a33.322667 33.322667 0 0 0 0 66.688h33.28a33.322667 33.322667 0 1 0 0-66.645333zM710.144 714.752h-33.28a33.322667 33.322667 0 0 0 0 66.645333h33.28a33.322667 33.322667 0 1 0 0-66.645333zM527.786667 714.752h-33.365334a33.322667 33.322667 0 0 0 0 66.645333h33.322667a33.322667 33.322667 0 1 0 0-66.645333zM711.082667 593.664h-33.365334a33.322667 33.322667 0 1 0 0 66.688h33.365334a33.322667 33.322667 0 0 0 0-66.688zM527.786667 639.445333h-33.365334a33.322667 33.322667 0 0 0 0 66.645334h33.322667a33.322667 33.322667 0 1 0 0-66.645334zM527.786667 328.704h-33.365334a33.322667 33.322667 0 0 0 0 66.645333h33.322667a33.322667 33.322667 0 0 0 0-66.645333zM710.144 368.981333h-33.28a33.322667 33.322667 0 0 0 0 66.645334h33.28a33.322667 33.322667 0 1 0 0-66.645334zM710.144 269.909333h-33.28a33.322667 33.322667 0 0 0 0 66.645334h33.28a33.322667 33.322667 0 0 0 0-66.645334z" fill="url(#logoGradient)" p-id="2672"></path>

  <!-- Horizontal line path - Apply gradient -->
  <path d="M878.634667 461.994667H145.365333v66.688h733.269334v-66.688z" fill="url(#logoGradient)" p-id="2673"></path>

  <!-- Vertical lines path - Apply gradient -->
  <path d="M346.453333 230.058667h-35.541333v562.773333h35.541333V230.058667zM529.792 230.613333h-35.584v562.773334h35.584V230.613333zM711.253333 230.613333h-35.541333v562.773334h35.541333V230.613333z" fill="url(#logoGradient)" p-id="2674"></path>
</svg>
